<svg width="1048" height="203" viewBox="0 0 1048 203" fill="none" xmlns="http://www.w3.org/2000/svg">
<rect x="0.5" y="0.5" width="1047" height="202" rx="3.5" fill="#FAFAFA"/>
<rect x="0.5" y="0.5" width="1047" height="202" rx="3.5" stroke="#BFBFBF" stroke-dasharray="5 5"/>
<path d="M444.364 103.796C444.691 103.796 444.952 103.726 445.148 103.586C445.353 103.446 445.456 103.264 445.456 103.04C445.456 102.853 445.381 102.545 445.232 102.116C445.083 101.687 444.691 100.604 444.056 98.868C444.028 98.7933 444 98.7233 443.972 98.658C443.944 98.5833 443.921 98.518 443.902 98.462L444.98 97.972L446.618 102.62C446.767 103.049 446.935 103.353 447.122 103.53C447.309 103.707 447.565 103.796 447.892 103.796H448.186C448.279 103.796 448.326 104.001 448.326 104.412C448.326 104.664 448.312 104.827 448.284 104.902C448.265 104.967 448.233 105 448.186 105H447.85C447.421 105 447.066 104.93 446.786 104.79C446.506 104.65 446.287 104.426 446.128 104.118C445.951 104.426 445.717 104.65 445.428 104.79C445.148 104.93 444.793 105 444.364 105H441.088L440.976 103.796H444.364ZM451.943 102.774C451.943 103.465 451.733 104.011 451.313 104.412C450.893 104.804 450.338 105 449.647 105H448.191C448.098 105 448.051 104.804 448.051 104.412C448.051 104.001 448.098 103.796 448.191 103.796H449.647C449.983 103.796 450.254 103.707 450.459 103.53C450.674 103.343 450.781 103.087 450.781 102.76V100.492H451.943V102.774ZM451.159 106.764V107.87H447.463V106.764H451.159ZM457.175 103.796C457.501 103.796 457.763 103.726 457.959 103.586C458.164 103.446 458.267 103.264 458.267 103.04C458.267 102.853 458.192 102.545 458.043 102.116C457.893 101.687 457.501 100.604 456.867 98.868C456.839 98.7933 456.811 98.7233 456.783 98.658C456.755 98.5833 456.731 98.518 456.713 98.462L457.791 97.972L459.429 102.62C459.578 103.049 459.746 103.353 459.933 103.53C460.119 103.707 460.376 103.796 460.703 103.796H460.997C461.09 103.796 461.137 104.001 461.137 104.412C461.137 104.664 461.123 104.827 461.095 104.902C461.076 104.967 461.043 105 460.997 105H460.661C460.231 105 459.877 104.93 459.597 104.79C459.317 104.65 459.097 104.426 458.939 104.118C458.761 104.426 458.528 104.65 458.239 104.79C457.959 104.93 457.604 105 457.175 105H453.899L453.787 103.796H457.175ZM461.982 103.796C462.682 103.796 463.265 103.74 463.732 103.628C464.199 103.516 464.679 103.32 465.174 103.04L467.302 101.794C467.153 101.29 466.947 100.94 466.686 100.744C466.434 100.548 466.051 100.45 465.538 100.45H462.262L462.416 99.232H465.734C466.294 99.232 466.756 99.3253 467.12 99.512C467.484 99.6987 467.787 100.007 468.03 100.436C468.273 100.856 468.483 101.439 468.66 102.186L465.72 104.006C465.123 104.379 464.549 104.641 463.998 104.79C463.447 104.93 462.761 105 461.94 105H461.002C460.909 105 460.862 104.804 460.862 104.412C460.862 104.001 460.909 103.796 461.002 103.796H461.982ZM463.592 107.926V106.764H465.076V107.926H463.592ZM485.627 102.69C485.627 103.045 485.725 103.32 485.921 103.516C486.127 103.703 486.421 103.796 486.803 103.796C487.195 103.796 487.494 103.703 487.699 103.516C487.914 103.32 488.021 103.045 488.021 102.69V100.492H489.183V102.662C489.183 103.39 488.969 103.964 488.539 104.384C488.119 104.795 487.541 105 486.803 105C485.861 105 485.259 104.711 484.997 104.132C484.633 104.711 484.017 105 483.149 105C482.543 105 482.127 104.865 481.903 104.594V104.762C481.894 105.471 481.726 106.101 481.399 106.652C481.073 107.212 480.625 107.646 480.055 107.954C479.486 108.262 478.833 108.416 478.095 108.416H477.479C476.303 108.416 475.398 108.075 474.763 107.394C474.129 106.713 473.811 105.761 473.811 104.538V101.892H474.973V104.51C474.973 105.397 475.188 106.069 475.617 106.526C476.047 106.983 476.677 107.212 477.507 107.212H478.095C478.898 107.212 479.537 106.979 480.013 106.512C480.499 106.045 480.741 105.415 480.741 104.622V100.492H481.903V102.718C481.903 103.054 482.006 103.32 482.211 103.516C482.426 103.703 482.739 103.796 483.149 103.796C483.569 103.796 483.891 103.698 484.115 103.502C484.349 103.306 484.465 103.035 484.465 102.69V100.492H485.627V102.69ZM493.43 104.594C493.43 105.369 493.276 106.045 492.968 106.624C492.66 107.203 492.226 107.646 491.666 107.954C491.116 108.262 490.481 108.416 489.762 108.416H488.782L488.67 107.212H489.734C490.528 107.212 491.148 106.979 491.596 106.512C492.044 106.055 492.268 105.415 492.268 104.594V100.492H493.43V104.594ZM500.993 101.038C501.291 101.383 501.506 101.71 501.637 102.018C501.767 102.317 501.833 102.62 501.833 102.928C501.833 103.544 501.618 104.043 501.189 104.426C500.759 104.809 500.157 105 499.383 105H495.393L495.281 103.796H499.383C499.793 103.796 500.111 103.717 500.335 103.558C500.559 103.399 500.671 103.185 500.671 102.914C500.671 102.746 500.624 102.578 500.531 102.41C500.447 102.233 500.302 102.023 500.097 101.78L497.479 98.77L498.305 97.944L500.993 101.038ZM503.975 95.228C503.779 95.228 503.625 95.2653 503.513 95.34C503.401 95.4053 503.317 95.5127 503.261 95.662L502.897 96.53L502.113 96.18L502.533 95.102C502.673 94.7567 502.85 94.5187 503.065 94.388C503.28 94.2573 503.583 94.192 503.975 94.192H507.405V95.228H503.975ZM505.711 97.216V105H504.549V97.216H505.711ZM515.104 108.416C513.928 108.416 513.023 108.075 512.388 107.394C511.754 106.713 511.436 105.761 511.436 104.538V101.892H512.598V104.51C512.598 105.397 512.813 106.069 513.242 106.526C513.672 106.983 514.302 107.212 515.132 107.212H515.72C516.523 107.212 517.162 106.979 517.638 106.512C518.124 106.045 518.366 105.415 518.366 104.622V100.492H519.528V104.51C519.528 105.313 519.365 106.008 519.038 106.596C518.721 107.184 518.273 107.632 517.694 107.94C517.125 108.257 516.467 108.416 515.72 108.416H515.104ZM514.46 100.072V98.91H515.944V100.072H514.46ZM527.092 101.038C527.391 101.383 527.606 101.71 527.736 102.018C527.867 102.317 527.932 102.62 527.932 102.928C527.932 103.544 527.718 104.043 527.288 104.426C526.859 104.809 526.257 105 525.482 105H521.492L521.38 103.796H525.482C525.893 103.796 526.21 103.717 526.434 103.558C526.658 103.399 526.77 103.185 526.77 102.914C526.77 102.746 526.724 102.578 526.63 102.41C526.546 102.233 526.402 102.023 526.196 101.78L523.578 98.77L524.404 97.944L527.092 101.038ZM535.501 104.552C535.501 105.345 535.352 106.031 535.053 106.61C534.754 107.189 534.33 107.632 533.779 107.94C533.238 108.257 532.598 108.416 531.861 108.416H530.139L530.027 107.212H531.875C532.622 107.212 533.214 107.011 533.653 106.61C534.101 106.218 534.33 105.681 534.339 105H532.939C531.978 105 531.282 104.804 530.853 104.412C530.433 104.011 530.223 103.39 530.223 102.55C530.223 101.971 530.335 101.458 530.559 101.01C530.783 100.553 531.096 100.203 531.497 99.96C531.908 99.708 532.37 99.582 532.883 99.582C533.695 99.582 534.334 99.8527 534.801 100.394C535.268 100.935 535.501 101.677 535.501 102.62V104.552ZM531.385 102.48C531.385 102.956 531.502 103.297 531.735 103.502C531.978 103.698 532.402 103.796 533.009 103.796H534.339V102.704C534.339 102.06 534.208 101.575 533.947 101.248C533.686 100.921 533.308 100.758 532.813 100.758C532.384 100.758 532.038 100.917 531.777 101.234C531.516 101.551 531.385 101.967 531.385 102.48ZM536.561 107.212C537.354 107.212 537.975 106.979 538.423 106.512C538.871 106.055 539.095 105.415 539.095 104.594V100.492H540.257V102.718C540.257 103.063 540.355 103.329 540.551 103.516C540.756 103.703 541.05 103.796 541.433 103.796H541.615C541.708 103.796 541.755 104.001 541.755 104.412C541.755 104.804 541.708 105 541.615 105H541.433C541.181 105 540.947 104.958 540.733 104.874C540.518 104.781 540.359 104.664 540.257 104.524V104.692C540.247 105.439 540.089 106.092 539.781 106.652C539.473 107.221 539.043 107.655 538.493 107.954C537.942 108.262 537.307 108.416 536.589 108.416H536.197L536.085 107.212H536.561ZM538.829 98.812V97.65H540.313V98.812H538.829ZM544.089 103.796C544.407 103.796 544.645 103.777 544.803 103.74C544.047 103.46 543.525 103.161 543.235 102.844C542.946 102.517 542.801 102.083 542.801 101.542C542.801 101.047 542.918 100.599 543.151 100.198C543.385 99.7873 543.702 99.4653 544.103 99.232C544.514 98.9987 544.976 98.882 545.489 98.882C546.348 98.882 547.011 99.148 547.477 99.68C547.953 100.203 548.191 100.94 548.191 101.892V102.368C548.191 103.236 547.902 103.894 547.323 104.342C546.745 104.781 545.891 105 544.761 105H541.611C541.518 105 541.471 104.804 541.471 104.412C541.471 104.001 541.518 103.796 541.611 103.796H544.089ZM546.525 103.53C546.861 103.25 547.029 102.839 547.029 102.298V101.962C547.029 101.327 546.894 100.851 546.623 100.534C546.362 100.217 545.975 100.058 545.461 100.058C545.051 100.058 544.696 100.203 544.397 100.492C544.108 100.772 543.963 101.113 543.963 101.514C543.963 101.822 544.038 102.083 544.187 102.298C544.337 102.513 544.593 102.718 544.957 102.914C545.321 103.101 545.844 103.306 546.525 103.53ZM544.677 97.412V96.25H546.161V97.412H544.677ZM550.569 95.942H551.731V105H550.569V95.942Z" fill="#B0B0B0"/>
<rect x="561" y="78" width="48" height="48" rx="5" fill="#F5F5F5"/>
<path d="M579 102H591" stroke="#B0B0B0" stroke-width="1.5" stroke-linecap="round" stroke-linejoin="round"/>
<path d="M585 108V96" stroke="#B0B0B0" stroke-width="1.5" stroke-linecap="round" stroke-linejoin="round"/>
</svg>
