<svg width="212" height="195" viewBox="0 0 212 195" fill="none" xmlns="http://www.w3.org/2000/svg">
<path d="M43.0983 13.752C43.0983 12.904 43.3223 12.056 43.7703 11.208C44.2183 10.344 44.9463 9.408 45.9543 8.4L44.9223 7.368L47.0823 5.088C48.6823 6.496 49.9063 7.68 50.7543 8.64C51.6023 9.6 52.1863 10.456 52.5063 11.208C52.8263 11.944 52.9863 12.712 52.9863 13.512C52.9863 14.44 52.7703 15.264 52.3383 15.984C51.9063 16.688 51.2983 17.24 50.5143 17.64C49.7303 18.04 48.8263 18.24 47.8023 18.24C46.3623 18.24 45.2183 17.832 44.3703 17.016C43.5223 16.184 43.0983 15.096 43.0983 13.752ZM49.9383 13.488C49.9383 12.96 49.7943 12.456 49.5063 11.976C49.2343 11.496 48.7463 10.96 48.0423 10.368C47.3703 10.976 46.8823 11.544 46.5783 12.072C46.2743 12.584 46.1223 13.096 46.1223 13.608C46.1223 14.024 46.2823 14.376 46.6023 14.664C46.9223 14.936 47.3623 15.072 47.9223 15.072C48.5303 15.072 49.0183 14.928 49.3863 14.64C49.7543 14.336 49.9383 13.952 49.9383 13.488ZM59.6204 13.368C59.6204 13.864 59.7404 14.232 59.9804 14.472C60.2364 14.696 60.6364 14.808 61.1804 14.808H61.6124C61.7724 14.808 61.8524 15.36 61.8524 16.464C61.8524 17.488 61.7724 18 61.6124 18H61.2284C60.8924 18 60.5804 17.96 60.2924 17.88C60.0044 17.784 59.7804 17.656 59.6204 17.496C59.5724 18.696 59.2764 19.768 58.7324 20.712C58.2044 21.656 57.4604 22.392 56.5004 22.92C55.5404 23.464 54.4204 23.736 53.1404 23.736H51.1244L50.8604 20.544H53.0924C54.1964 20.544 55.0524 20.24 55.6604 19.632C56.2684 19.04 56.5724 18.2 56.5724 17.112V9.744H59.6204V13.368ZM59.4284 0.743999V3.36H56.5484V0.743999H59.4284ZM61.3724 4.512V7.248H54.6044V4.512H61.3724ZM66.7422 14.808C67.1262 14.808 67.4382 14.704 67.6782 14.496C67.9342 14.272 68.0622 13.968 68.0622 13.584V9.744H71.1102V13.728C71.1102 15.056 70.7102 16.104 69.9102 16.872C69.1262 17.624 68.0622 18 66.7182 18H60.8862C60.7262 18 60.6462 17.488 60.6462 16.464C60.6462 15.36 60.7262 14.808 60.8862 14.808H66.7422ZM67.8942 20.496V23.232H61.1262V20.496H67.8942ZM83.1862 16.992C83.1862 19.088 82.6262 20.736 81.5062 21.936C80.4022 23.136 78.8822 23.736 76.9462 23.736H73.6582L73.3942 20.544H77.1382C78.0822 20.544 78.8182 20.312 79.3462 19.848C79.8742 19.4 80.1382 18.784 80.1382 18H78.4582C76.7302 18 75.4902 17.64 74.7382 16.92C74.0022 16.2 73.6342 15.056 73.6342 13.488C73.6342 12.464 73.8342 11.552 74.2342 10.752C74.6342 9.952 75.1942 9.328 75.9142 8.88C76.6502 8.432 77.4982 8.208 78.4582 8.208C79.9302 8.208 81.0822 8.688 81.9142 9.648C82.7622 10.608 83.1862 11.936 83.1862 13.632V16.992ZM76.6582 13.368C76.6582 13.88 76.7942 14.256 77.0662 14.496C77.3542 14.72 77.8582 14.832 78.5782 14.832H80.1382V13.584C80.1382 12.816 79.9862 12.232 79.6822 11.832C79.3782 11.432 78.9382 11.232 78.3622 11.232C77.8182 11.232 77.3942 11.432 77.0902 11.832C76.8022 12.216 76.6582 12.728 76.6582 13.368ZM102.6 14.808C103 14.808 103.32 14.696 103.56 14.472C103.816 14.248 103.944 13.952 103.944 13.584V9.744H106.992V13.752C106.992 15.08 106.6 16.12 105.816 16.872C105.032 17.624 103.968 18 102.624 18H94.7279C93.2879 18 92.1839 17.624 91.4159 16.872C90.6479 16.104 90.2639 15.008 90.2639 13.584V9.744H93.3119V13.176C93.3119 13.72 93.4319 14.128 93.6719 14.4C93.9279 14.672 94.3279 14.808 94.8719 14.808H102.6ZM102.024 5.352V8.088H95.2559V5.352H102.024ZM114.673 14.808C114.753 14.808 114.809 14.912 114.841 15.12C114.889 15.328 114.913 15.776 114.913 16.464C114.913 17.104 114.889 17.52 114.841 17.712C114.809 17.904 114.753 18 114.673 18H113.809C112.465 18 111.441 17.616 110.737 16.848C110.049 16.064 109.705 14.952 109.705 13.512V2.544H112.777V13.296C112.777 13.808 112.873 14.192 113.065 14.448C113.273 14.688 113.593 14.808 114.025 14.808H114.673ZM116.574 14.808C116.302 14.52 116.086 14.144 115.926 13.68C115.782 13.216 115.71 12.752 115.71 12.288C115.71 11.408 115.918 10.6 116.334 9.864C116.766 9.128 117.35 8.544 118.086 8.112C118.822 7.68 119.638 7.464 120.534 7.464C121.494 7.464 122.334 7.664 123.054 8.064C123.79 8.448 124.358 9 124.758 9.72C125.174 10.44 125.382 11.256 125.382 12.168C125.382 13.224 125.046 14.104 124.374 14.808H127.134C127.294 14.808 127.374 15.36 127.374 16.464C127.374 17.488 127.294 18 127.134 18H123.87C122.958 18 122.246 17.968 121.734 17.904C121.222 17.824 120.822 17.696 120.534 17.52C120.246 17.696 119.83 17.824 119.286 17.904C118.758 17.968 118.07 18 117.222 18H113.958C113.798 18 113.718 17.488 113.718 16.464C113.718 15.36 113.798 14.808 113.958 14.808H116.574ZM120.534 10.512C119.99 10.512 119.55 10.688 119.214 11.04C118.894 11.376 118.734 11.8 118.734 12.312C118.734 12.808 118.894 13.28 119.214 13.728C119.534 14.16 119.974 14.52 120.534 14.808C121.126 14.536 121.574 14.176 121.878 13.728C122.182 13.264 122.334 12.792 122.334 12.312C122.334 11.752 122.174 11.312 121.854 10.992C121.534 10.672 121.094 10.512 120.534 10.512ZM118.902 5.064V2.328H122.166V5.064H118.902ZM129.194 14.808C129.594 14.808 129.914 14.704 130.154 14.496C130.41 14.272 130.538 13.968 130.538 13.584V9.744H133.586V13.488C133.586 14.368 134.034 14.808 134.93 14.808H135.842C136.002 14.808 136.082 15.344 136.082 16.416C136.082 17.472 136.002 18 135.842 18H134.786C133.442 18 132.53 17.616 132.05 16.848C131.762 17.248 131.378 17.544 130.898 17.736C130.434 17.912 129.866 18 129.194 18H126.41C126.25 18 126.17 17.488 126.17 16.464C126.17 15.36 126.25 14.808 126.41 14.808H129.194ZM131.45 20.496V23.232H124.682V20.496H131.45ZM137.728 14.808C137.456 14.52 137.24 14.144 137.08 13.68C136.936 13.216 136.864 12.752 136.864 12.288C136.864 11.408 137.072 10.6 137.488 9.864C137.92 9.128 138.504 8.544 139.24 8.112C139.976 7.68 140.792 7.464 141.688 7.464C142.648 7.464 143.488 7.664 144.208 8.064C144.944 8.448 145.512 9 145.912 9.72C146.328 10.44 146.536 11.256 146.536 12.168C146.536 13.224 146.2 14.104 145.528 14.808H148.288C148.448 14.808 148.528 15.36 148.528 16.464C148.528 17.488 148.448 18 148.288 18H145.024C144.112 18 143.4 17.968 142.888 17.904C142.376 17.824 141.976 17.696 141.688 17.52C141.4 17.696 140.984 17.824 140.44 17.904C139.912 17.968 139.224 18 138.376 18H135.112C134.952 18 134.872 17.488 134.872 16.464C134.872 15.36 134.952 14.808 135.112 14.808H137.728ZM141.688 10.512C141.144 10.512 140.704 10.688 140.368 11.04C140.048 11.376 139.888 11.8 139.888 12.312C139.888 12.808 140.048 13.28 140.368 13.728C140.688 14.16 141.128 14.52 141.688 14.808C142.28 14.536 142.728 14.176 143.032 13.728C143.336 13.264 143.488 12.792 143.488 12.312C143.488 11.752 143.328 11.312 143.008 10.992C142.688 10.672 142.248 10.512 141.688 10.512ZM140.056 5.064V2.328H143.32V5.064H140.056ZM155.508 7.608C156.5 7.608 157.308 7.776 157.932 8.112C158.556 8.448 159.076 9.016 159.492 9.816C159.908 10.6 160.284 11.728 160.62 13.2L159.108 14.16C159.252 14.368 159.484 14.528 159.804 14.64C160.124 14.752 160.5 14.808 160.932 14.808H162.372C162.532 14.808 162.612 15.36 162.612 16.464C162.612 17.12 162.588 17.544 162.54 17.736C162.492 17.912 162.436 18 162.372 18H160.764C159.868 18 159.116 17.824 158.508 17.472C157.916 17.12 157.38 16.52 156.9 15.672L155.988 16.248C154.9 16.92 153.86 17.384 152.868 17.64C151.876 17.88 150.652 18 149.196 18H147.564C147.404 18 147.324 17.488 147.324 16.464C147.324 15.36 147.404 14.808 147.564 14.808H149.34C150.556 14.808 151.556 14.728 152.34 14.568C153.14 14.408 153.964 14.088 154.812 13.608L157.044 12.336C156.884 11.728 156.644 11.32 156.324 11.112C156.02 10.888 155.556 10.776 154.932 10.776H149.436L149.796 7.608H155.508ZM152.268 5.184V2.448H155.532V5.184H152.268ZM168.4 13.728C168.4 15.056 168 16.104 167.2 16.872C166.416 17.624 165.352 18 164.008 18H161.656C161.496 18 161.416 17.488 161.416 16.464C161.416 15.36 161.496 14.808 161.656 14.808H164.008C164.408 14.808 164.728 14.704 164.968 14.496C165.224 14.272 165.352 13.968 165.352 13.584V9.744H168.4V13.728ZM168.976 4.512V7.248H162.208V4.512H168.976Z" fill="#FDAF4B"/>
<path d="M74.9236 183.924C72.7715 186.476 70.1491 188.71 67.0915 190.474C62.5874 193.073 57.4718 194.449 52.3091 194.449C41.7487 194.449 31.9055 188.769 26.6253 179.632C22.6739 172.776 21.6156 164.791 23.6618 157.158C25.32 150.961 28.8479 145.598 33.7754 141.682" fill="#A55581"/>
<path d="M74.9236 183.924C72.7715 186.476 70.1491 188.71 67.0915 190.474C62.5874 193.073 57.4718 194.449 52.3091 194.449C41.7487 194.449 31.9055 188.769 26.6253 179.632C22.6739 172.776 21.6156 164.791 23.6618 157.158C25.32 150.961 28.8479 145.598 33.7754 141.682" stroke="#B37195" stroke-miterlimit="10" stroke-linecap="round" stroke-linejoin="round"/>
<path d="M79.1155 164.826C79.1155 179.644 67.1032 191.656 52.2853 191.656C37.4674 191.656 25.4551 179.644 25.4551 164.826C25.4551 150.008 37.4674 137.996 52.2853 137.996C67.1032 137.996 79.1155 150.008 79.1155 164.826Z" fill="#A55581" stroke="#B37195"/>
<path d="M130.994 36.889C136.439 28.9039 145.494 24 155.455 24C159.3 24 163.064 24.7409 166.65 26.2109C181.774 32.3849 189.053 49.7191 182.879 64.8307C181.315 68.6645 179.022 72.0396 176.2 74.815" fill="#A55581"/>
<path d="M130.994 36.889C136.439 28.9039 145.494 24 155.455 24C159.3 24 163.064 24.7409 166.65 26.2109C181.774 32.3849 189.053 49.7191 182.879 64.8307C181.315 68.6645 179.022 72.0396 176.2 74.815" stroke="#DCBDCE" stroke-miterlimit="10" stroke-linecap="round" stroke-linejoin="round"/>
<path d="M107.299 187.299C148.834 187.299 182.504 153.629 182.504 112.094C182.504 70.5592 148.834 36.8887 107.299 36.8887C65.7643 36.8887 32.0938 70.5592 32.0938 112.094C32.0938 153.629 65.7643 187.299 107.299 187.299Z" fill="url(#paint0_linear_0_1)"/>
<path d="M178.046 77.708C183.103 88.0921 185.949 99.7698 185.949 112.094C185.949 155.524 150.74 190.745 107.298 190.745C97.1493 190.745 87.4472 188.828 78.5449 185.324" stroke="url(#paint1_linear_0_1)" stroke-width="1.0413" stroke-miterlimit="10" stroke-linecap="round" stroke-linejoin="round"/>
<path d="M33.2094 138.542C30.2576 130.275 28.6465 121.373 28.6465 112.094C28.6465 68.6646 63.8559 33.4434 107.297 33.4434C113.824 33.4434 120.163 34.243 126.219 35.7366" stroke="url(#paint2_linear_0_1)" stroke-width="1.0413" stroke-miterlimit="10" stroke-linecap="round" stroke-linejoin="round"/>
<path d="M13.3006 151.761C20.6463 151.761 26.6012 145.806 26.6012 138.46C26.6012 131.114 20.6463 125.16 13.3006 125.16C5.95492 125.16 -8.54492e-06 131.114 -8.54492e-06 138.46C-8.54492e-06 145.806 5.95492 151.761 13.3006 151.761Z" fill="url(#paint3_linear_0_1)"/>
<path d="M197.861 87.5746C205.207 87.5746 211.162 81.6198 211.162 74.2741C211.162 66.9284 205.207 60.9735 197.861 60.9735C190.515 60.9735 184.561 66.9284 184.561 74.2741C184.561 81.6198 190.515 87.5746 197.861 87.5746Z" fill="url(#paint4_linear_0_1)"/>
<path d="M199.978 96.0534C199.978 98.4878 198.003 100.463 195.568 100.463C193.134 100.463 191.158 98.4878 191.158 96.0534C191.158 93.6191 193.134 91.6434 195.568 91.6434C198.003 91.6434 199.978 93.6191 199.978 96.0534Z" fill="url(#paint5_linear_0_1)"/>
<path d="M17.8866 121.091C20.3221 121.091 22.2966 119.116 22.2966 116.681C22.2966 114.245 20.3221 112.271 17.8866 112.271C15.451 112.271 13.4766 114.245 13.4766 116.681C13.4766 119.116 15.451 121.091 17.8866 121.091Z" fill="url(#paint6_linear_0_1)"/>
<path d="M59.9414 62.7959H102.348" stroke="url(#paint7_linear_0_1)" stroke-miterlimit="10" stroke-linecap="round" stroke-linejoin="round"/>
<path d="M59.9414 67.9585H92.0344" stroke="url(#paint8_linear_0_1)" stroke-miterlimit="10" stroke-linecap="round" stroke-linejoin="round"/>
<path d="M155.444 80.9652C170.538 80.9652 182.774 68.729 182.774 53.6349C182.774 38.5409 170.538 26.3047 155.444 26.3047C140.35 26.3047 128.113 38.5409 128.113 53.6349C128.113 68.729 140.35 80.9652 155.444 80.9652Z" fill="#A55581"/>
<path d="M149.095 40.9594V49H147.955V42.1635L146.738 42.3707V41.3348L149.095 40.9594ZM155.069 48.4562C154.577 48.905 153.869 49.1295 152.946 49.1295C152.583 49.1295 152.208 49.095 151.819 49.0259C151.431 48.9655 151.111 48.8792 150.861 48.7669V47.7958C151.155 47.9081 151.47 47.9987 151.806 48.0678C152.143 48.1282 152.475 48.1584 152.803 48.1584C153.416 48.1584 153.878 48.0246 154.189 47.757C154.508 47.4808 154.668 47.0837 154.668 46.5658C154.668 46.0479 154.547 45.6724 154.305 45.4393C154.063 45.2063 153.632 45.0897 153.01 45.0897H150.822V44.3905L151.016 41.0759H155.276L155.186 42.047H151.975L151.845 44.2352H153.218C154.089 44.2352 154.737 44.4208 155.16 44.7919C155.591 45.1545 155.807 45.7587 155.807 46.6046C155.807 47.3901 155.561 48.0073 155.069 48.4562ZM160.184 44.0798C159.907 44.3905 159.497 44.5459 158.953 44.5459C158.418 44.5459 158.008 44.3905 157.723 44.0798C157.447 43.769 157.309 43.3504 157.309 42.8239C157.309 42.2369 157.447 41.7794 157.723 41.4514C158 41.1234 158.41 40.9594 158.953 40.9594C159.497 40.9594 159.907 41.1234 160.184 41.4514C160.468 41.7794 160.611 42.2369 160.611 42.8239C160.611 43.3504 160.468 43.769 160.184 44.0798ZM163.563 41.0759L159.484 49H158.448L162.514 41.0759H163.563ZM157.969 42.798C157.969 43.5144 158.297 43.8726 158.953 43.8726C159.618 43.8726 159.95 43.5144 159.95 42.798C159.95 42.4009 159.868 42.1074 159.704 41.9175C159.549 41.7276 159.299 41.6326 158.953 41.6326C158.617 41.6326 158.366 41.7276 158.202 41.9175C158.047 42.1074 157.969 42.4009 157.969 42.798ZM164.301 48.6634C164.016 48.9741 163.606 49.1295 163.071 49.1295C162.536 49.1295 162.126 48.9741 161.841 48.6634C161.556 48.344 161.414 47.9253 161.414 47.4074C161.414 46.8204 161.552 46.3629 161.828 46.0349C162.113 45.6983 162.527 45.53 163.071 45.53C163.615 45.53 164.025 45.6983 164.301 46.0349C164.586 46.3629 164.728 46.8204 164.728 47.4074C164.728 47.9253 164.586 48.344 164.301 48.6634ZM162.087 47.3815C162.087 48.0893 162.415 48.4432 163.071 48.4432C163.736 48.4432 164.068 48.0893 164.068 47.3815C164.068 46.9844 163.986 46.691 163.822 46.5011C163.666 46.3112 163.416 46.2162 163.071 46.2162C162.734 46.2162 162.484 46.3112 162.32 46.5011C162.165 46.691 162.087 46.9844 162.087 47.3815Z" fill="white"/>
<path d="M145.043 64.968C144.771 64.784 144.559 64.544 144.407 64.248C144.255 63.944 144.179 63.628 144.179 63.3C144.179 62.884 144.279 62.504 144.479 62.16C144.679 61.808 144.955 61.532 145.307 61.332C145.659 61.124 146.047 61.02 146.471 61.02C146.911 61.02 147.303 61.116 147.647 61.308C147.999 61.492 148.271 61.752 148.463 62.088C148.655 62.424 148.751 62.808 148.751 63.24C148.751 63.968 148.439 64.544 147.815 64.968H149.795C149.875 64.968 149.915 65.144 149.915 65.496C149.915 65.832 149.875 66 149.795 66H148.199C147.711 66 147.343 65.988 147.095 65.964C146.847 65.932 146.647 65.88 146.495 65.808C146.343 65.88 146.135 65.932 145.871 65.964C145.607 65.988 145.231 66 144.743 66H141.443C140.739 66 140.207 65.816 139.847 65.448C139.495 65.08 139.319 64.572 139.319 63.924V62.136H140.315V63.792C140.315 64.576 140.711 64.968 141.503 64.968H145.043ZM146.471 64.944C146.903 64.752 147.223 64.512 147.431 64.224C147.647 63.936 147.755 63.628 147.755 63.3C147.755 62.916 147.639 62.608 147.407 62.376C147.183 62.144 146.871 62.028 146.471 62.028C146.087 62.028 145.775 62.148 145.535 62.388C145.295 62.628 145.175 62.932 145.175 63.3C145.175 63.644 145.283 63.96 145.499 64.248C145.723 64.528 146.047 64.76 146.471 64.944ZM145.811 59.616V58.62H147.083V59.616H145.811ZM151.237 64.968C151.549 64.968 151.797 64.888 151.981 64.728C152.165 64.568 152.257 64.352 152.257 64.08V62.136H153.253V64.056C153.253 64.352 153.333 64.58 153.493 64.74C153.661 64.892 153.901 64.968 154.213 64.968H154.549C154.629 64.968 154.669 65.14 154.669 65.484C154.669 65.828 154.629 66 154.549 66H154.177C153.441 66 152.961 65.764 152.737 65.292C152.457 65.764 151.957 66 151.237 66H149.797C149.717 66 149.677 65.832 149.677 65.496C149.677 65.144 149.717 64.968 149.797 64.968H151.237ZM152.269 67.512V68.46H149.101V67.512H152.269ZM156.475 64.968C156.203 64.784 155.987 64.544 155.827 64.248C155.675 63.944 155.599 63.628 155.599 63.3C155.599 62.884 155.699 62.504 155.899 62.16C156.107 61.808 156.383 61.532 156.727 61.332C157.079 61.124 157.471 61.02 157.903 61.02C158.343 61.02 158.735 61.116 159.079 61.308C159.431 61.492 159.703 61.752 159.895 62.088C160.087 62.424 160.183 62.808 160.183 63.24C160.183 63.968 159.871 64.544 159.247 64.968H161.227C161.307 64.968 161.347 65.144 161.347 65.496C161.347 65.832 161.307 66 161.227 66H159.631C159.143 66 158.775 65.988 158.527 65.964C158.279 65.932 158.079 65.88 157.927 65.808C157.783 65.88 157.575 65.932 157.303 65.964C157.039 65.988 156.663 66 156.175 66H154.555C154.475 66 154.435 65.832 154.435 65.496C154.435 65.144 154.475 64.968 154.555 64.968H156.475ZM157.903 62.028C157.519 62.028 157.203 62.148 156.955 62.388C156.715 62.628 156.595 62.932 156.595 63.3C156.595 63.644 156.707 63.96 156.931 64.248C157.155 64.528 157.479 64.76 157.903 64.944C158.335 64.752 158.655 64.512 158.863 64.224C159.079 63.936 159.187 63.628 159.187 63.3C159.187 62.916 159.071 62.608 158.839 62.376C158.607 62.144 158.295 62.028 157.903 62.028ZM157.267 59.616V58.62H158.539V59.616H157.267ZM165.279 61.056C165.759 61.056 166.155 61.136 166.467 61.296C166.779 61.456 167.039 61.72 167.247 62.088C167.455 62.448 167.635 62.948 167.787 63.588L166.839 64.164C166.967 64.468 167.119 64.68 167.295 64.8C167.471 64.912 167.719 64.968 168.039 64.968H168.831C168.911 64.968 168.951 65.144 168.951 65.496C168.951 65.712 168.939 65.852 168.915 65.916C168.891 65.972 168.863 66 168.831 66H168.003C167.523 66 167.143 65.904 166.863 65.712C166.583 65.512 166.327 65.152 166.095 64.632L165.267 65.148C164.755 65.468 164.263 65.692 163.791 65.82C163.319 65.94 162.731 66 162.027 66H161.223C161.143 66 161.103 65.832 161.103 65.496C161.103 65.144 161.143 64.968 161.223 64.968H162.063C162.663 64.968 163.163 64.92 163.563 64.824C163.963 64.728 164.375 64.56 164.799 64.32L166.623 63.252C166.495 62.82 166.319 62.52 166.095 62.352C165.879 62.184 165.551 62.1 165.111 62.1H162.303L162.435 61.056H165.279ZM163.815 59.652V58.656H165.087V59.652H163.815ZM172.044 64.092C172.044 64.684 171.864 65.152 171.504 65.496C171.144 65.832 170.668 66 170.076 66H168.828C168.748 66 168.708 65.832 168.708 65.496C168.708 65.144 168.748 64.968 168.828 64.968H170.076C170.364 64.968 170.596 64.892 170.772 64.74C170.956 64.58 171.048 64.36 171.048 64.08V62.136H172.044V64.092ZM172.416 59.748V60.696H169.248V59.748H172.416Z" fill="white"/>
<path d="M69.8831 100.342C69.8831 99.3837 69.3201 98.9043 68.194 98.9043H63.8569V94.7499C63.8569 93.4868 64.2373 92.4672 64.9982 91.6911C65.7591 90.8998 66.7863 90.5041 68.0798 90.5041H70.9788L71.1386 92.3987H68.0342C67.3646 92.3987 66.8167 92.6194 66.3906 93.0607C65.9798 93.4868 65.7743 94.027 65.7743 94.6814V96.9412H68.5135C69.6092 96.9412 70.4234 97.2304 70.956 97.8086C71.5038 98.3717 71.7777 99.1782 71.7777 100.228C71.7777 101.187 71.4962 102.077 70.9332 102.899C70.3853 103.721 69.632 104.368 68.6733 104.839C67.7298 105.326 66.6798 105.57 65.5232 105.57H63.7656C61.8481 105.57 60.372 105.014 59.3372 103.903C58.3024 102.792 57.785 101.24 57.785 99.2467V94.9325H59.6796V99.2011C59.6796 100.647 60.0296 101.742 60.7296 102.488C61.4296 103.234 62.4568 103.607 63.8112 103.607H65.5232C66.3754 103.607 67.1287 103.462 67.7831 103.173C68.4527 102.899 68.9701 102.511 69.3353 102.009C69.7005 101.522 69.8831 100.966 69.8831 100.342ZM79.7999 98.0369C79.876 98.0369 79.9293 98.1054 79.9597 98.2423C80.0053 98.3641 80.0282 98.6304 80.0282 99.0413C80.0282 99.4369 80.0053 99.6956 79.9597 99.8174C79.9293 99.9391 79.876 100 79.7999 100H79.2064C78.0499 100 77.1672 99.6576 76.5585 98.9728C75.965 98.2728 75.6683 97.2836 75.6683 96.0053V85.2311H77.5629V95.914C77.5629 97.3293 78.1412 98.0369 79.2977 98.0369H79.7999ZM83.3948 98.0369C82.923 97.7021 82.5349 97.2532 82.2306 96.6901C81.9415 96.1119 81.7969 95.526 81.7969 94.9325C81.7969 94.1107 81.9871 93.3726 82.3676 92.7183C82.7632 92.0487 83.2958 91.5313 83.9654 91.1661C84.635 90.7856 85.3883 90.5954 86.2253 90.5954C87.0014 90.5954 87.709 90.778 88.3481 91.1432C88.9873 91.5085 89.4895 92.0107 89.8547 92.6498C90.2352 93.2737 90.4254 93.9738 90.4254 94.7499C90.4254 95.4194 90.258 96.0434 89.9232 96.6216C89.6036 97.1847 89.1395 97.6565 88.5308 98.0369H91.9091C92.5635 98.0369 93.0657 97.9076 93.4157 97.6488C93.7657 97.3901 93.9407 97.0401 93.9407 96.5988C93.9407 96.3097 93.8646 96.0205 93.7124 95.7314C93.5755 95.4271 93.3168 95.077 92.9363 94.6814L88.3025 89.8193L89.6721 88.4269L94.3972 93.4716C95.3559 94.4912 95.8353 95.5412 95.8353 96.6216C95.8353 97.6412 95.4853 98.463 94.7853 99.0869C94.0853 99.6956 93.1265 100 91.9091 100H89.3297C88.3405 100 87.6177 99.9772 87.1612 99.9315C86.7198 99.8859 86.3622 99.787 86.0883 99.6348C85.8144 99.7717 85.4263 99.8706 84.9241 99.9315C84.4372 99.9772 83.7143 100 82.7556 100H79.811C79.6588 100 79.5827 99.6804 79.5827 99.0413C79.5827 98.3717 79.6588 98.0369 79.811 98.0369H83.3948ZM85.997 97.9913C86.834 97.6412 87.4731 97.1999 87.9144 96.6673C88.371 96.1347 88.5992 95.5564 88.5992 94.9325C88.5992 94.2172 88.3634 93.639 87.8916 93.1976C87.4351 92.7411 86.8416 92.5128 86.1111 92.5128C85.3807 92.5128 84.7796 92.7411 84.3078 93.1976C83.8513 93.639 83.623 94.2172 83.623 94.9325C83.623 95.5868 83.8209 96.1727 84.2165 96.6901C84.6274 97.2075 85.2209 97.6412 85.997 97.9913ZM115.82 98.0369C115.303 97.6869 114.9 97.2304 114.61 96.6673C114.321 96.089 114.177 95.4879 114.177 94.864C114.177 94.0727 114.367 93.3498 114.747 92.6955C115.128 92.0259 115.653 91.5009 116.322 91.1204C116.992 90.7248 117.73 90.5269 118.537 90.5269C119.374 90.5269 120.119 90.7095 120.774 91.0748C121.443 91.4248 121.961 91.9193 122.326 92.5585C122.691 93.1976 122.874 93.9281 122.874 94.7499C122.874 96.1347 122.28 97.2304 121.093 98.0369H124.86C125.012 98.0369 125.088 98.3717 125.088 99.0413C125.088 99.6804 125.012 100 124.86 100H121.824C120.895 100 120.195 99.9772 119.724 99.9315C119.252 99.8706 118.871 99.7717 118.582 99.6348C118.293 99.7717 117.897 99.8706 117.395 99.9315C116.893 99.9772 116.178 100 115.25 100H108.972C107.633 100 106.621 99.65 105.936 98.95C105.267 98.25 104.932 97.2836 104.932 96.051V92.6498H106.827V95.7999C106.827 97.2912 107.58 98.0369 109.086 98.0369H115.82ZM118.537 97.9913C119.358 97.626 119.967 97.1695 120.363 96.6216C120.774 96.0738 120.979 95.4879 120.979 94.864C120.979 94.1335 120.758 93.5477 120.317 93.1063C119.891 92.665 119.298 92.4444 118.537 92.4444C117.806 92.4444 117.213 92.6726 116.756 93.1292C116.3 93.5857 116.071 94.164 116.071 94.864C116.071 95.5184 116.277 96.1195 116.688 96.6673C117.114 97.1999 117.73 97.6412 118.537 97.9913ZM117.281 87.8562V85.9616H119.701V87.8562H117.281ZM127.602 98.0369C128.195 98.0369 128.667 97.8847 129.017 97.5804C129.367 97.276 129.542 96.8651 129.542 96.3477V92.6498H131.437V96.3021C131.437 96.8651 131.589 97.2988 131.893 97.6032C132.213 97.8923 132.669 98.0369 133.263 98.0369H133.902C134.054 98.0369 134.13 98.3641 134.13 99.0185C134.13 99.6728 134.054 100 133.902 100H133.194C131.794 100 130.881 99.5511 130.455 98.6532C129.922 99.5511 128.971 100 127.602 100H124.862C124.71 100 124.634 99.6804 124.634 99.0413C124.634 98.3717 124.71 98.0369 124.862 98.0369H127.602ZM129.565 102.876V104.679H123.539V102.876H129.565ZM137.565 98.0369C137.048 97.6869 136.637 97.2304 136.333 96.6673C136.043 96.089 135.899 95.4879 135.899 94.864C135.899 94.0727 136.089 93.3498 136.47 92.6955C136.865 92.0259 137.39 91.5009 138.045 91.1204C138.714 90.7248 139.46 90.5269 140.282 90.5269C141.119 90.5269 141.864 90.7095 142.519 91.0748C143.188 91.4248 143.706 91.9193 144.071 92.5585C144.436 93.1976 144.619 93.9281 144.619 94.7499C144.619 96.1347 144.025 97.2304 142.838 98.0369H146.605C146.757 98.0369 146.833 98.3717 146.833 99.0413C146.833 99.6804 146.757 100 146.605 100H143.569C142.64 100 141.94 99.9772 141.469 99.9315C140.997 99.8706 140.616 99.7717 140.327 99.6348C140.053 99.7717 139.658 99.8706 139.14 99.9315C138.638 99.9772 137.923 100 136.995 100H133.913C133.761 100 133.685 99.6804 133.685 99.0413C133.685 98.3717 133.761 98.0369 133.913 98.0369H137.565ZM140.282 92.4444C139.551 92.4444 138.95 92.6726 138.478 93.1292C138.022 93.5857 137.793 94.164 137.793 94.864C137.793 95.5184 138.007 96.1195 138.433 96.6673C138.859 97.1999 139.475 97.6412 140.282 97.9913C141.103 97.626 141.712 97.1695 142.108 96.6216C142.519 96.0738 142.724 95.4879 142.724 94.864C142.724 94.1335 142.503 93.5477 142.062 93.1063C141.621 92.665 141.027 92.4444 140.282 92.4444ZM139.072 87.8562V85.9616H141.491V87.8562H139.072ZM154.312 90.5954C155.225 90.5954 155.979 90.7476 156.572 91.0519C157.166 91.3563 157.66 91.8585 158.056 92.5585C158.452 93.2433 158.794 94.1944 159.083 95.4118L157.28 96.5075C157.523 97.0858 157.812 97.4891 158.147 97.7173C158.482 97.9304 158.954 98.0369 159.562 98.0369H161.069C161.221 98.0369 161.297 98.3717 161.297 99.0413C161.297 99.4522 161.274 99.7185 161.229 99.8402C161.183 99.9467 161.13 100 161.069 100H159.494C158.581 100 157.858 99.8174 157.325 99.4522C156.793 99.0717 156.306 98.3869 155.865 97.3978L154.289 98.3793C153.316 98.988 152.38 99.4141 151.482 99.6576C150.584 99.8859 149.465 100 148.126 100H146.597C146.445 100 146.369 99.6804 146.369 99.0413C146.369 98.3717 146.445 98.0369 146.597 98.0369H148.195C149.336 98.0369 150.287 97.9456 151.048 97.763C151.809 97.5804 152.593 97.2608 153.399 96.8043L156.869 94.7727C156.625 93.9509 156.291 93.3803 155.865 93.0607C155.454 92.7411 154.83 92.5813 153.993 92.5813H148.651L148.902 90.5954H154.312ZM151.527 87.9247V86.0301H153.947V87.9247H151.527ZM167.182 96.3706C167.182 97.4967 166.839 98.3869 166.155 99.0413C165.47 99.6804 164.564 100 163.438 100H161.064C160.912 100 160.836 99.6804 160.836 99.0413C160.836 98.3717 160.912 98.0369 161.064 98.0369H163.438C163.986 98.0369 164.427 97.8923 164.762 97.6032C165.112 97.2988 165.287 96.8804 165.287 96.3477V92.6498H167.182V96.3706ZM167.889 88.1073V89.9106H161.863V88.1073H167.889Z" fill="white"/>
<path d="M88.1737 127.28C88.3071 127.28 88.3737 127.573 88.3737 128.16C88.3737 128.72 88.3071 129 88.1737 129H86.0937C86.2937 129.2 86.3937 129.513 86.3937 129.94C86.3937 130.713 86.1671 131.393 85.7137 131.98C85.2737 132.58 84.6404 133.047 83.8137 133.38C83.0004 133.713 82.0537 133.88 80.9737 133.88H79.4337C77.7537 133.88 76.4604 133.393 75.5537 132.42C74.6471 131.447 74.1937 130.087 74.1937 128.34V124.56H75.8537V128.3C75.8537 129.567 76.1604 130.527 76.7737 131.18C77.3871 131.833 78.2871 132.16 79.4737 132.16H80.9737C82.1871 132.16 83.1137 131.967 83.7537 131.58C84.4071 131.193 84.7337 130.66 84.7337 129.98C84.7337 129.62 84.6404 129.353 84.4537 129.18C84.2804 129.02 84.0004 128.94 83.6137 128.94H79.8937L80.0737 127.28H88.1737ZM93.5397 125.82C93.5397 126.807 93.2397 127.587 92.6397 128.16C92.0397 128.72 91.2463 129 90.2597 129H88.1797C88.0463 129 87.9797 128.72 87.9797 128.16C87.9797 127.573 88.0463 127.28 88.1797 127.28H90.2597C90.7397 127.28 91.1263 127.153 91.4197 126.9C91.7263 126.633 91.8797 126.267 91.8797 125.8V122.56H93.5397V125.82ZM90.4997 120.16V118.5H92.6197V120.16H90.4997ZM104.333 123.34C104.759 123.833 105.066 124.3 105.253 124.74C105.439 125.167 105.533 125.6 105.533 126.04C105.533 126.92 105.226 127.633 104.613 128.18C103.999 128.727 103.139 129 102.033 129H96.3328L96.1728 127.28H102.033C102.619 127.28 103.073 127.167 103.393 126.94C103.713 126.713 103.873 126.407 103.873 126.02C103.873 125.78 103.806 125.54 103.673 125.3C103.553 125.047 103.346 124.747 103.053 124.4L99.3128 120.1L100.493 118.92L104.333 123.34ZM111.596 125.74C111.596 126.233 111.736 126.613 112.016 126.88C112.309 127.147 112.729 127.28 113.276 127.28H113.536C113.669 127.28 113.736 127.573 113.736 128.16C113.736 128.72 113.669 129 113.536 129H113.276C112.916 129 112.583 128.94 112.276 128.82C111.969 128.687 111.743 128.52 111.596 128.32V128.56C111.583 129.627 111.356 130.56 110.916 131.36C110.476 132.173 109.863 132.793 109.076 133.22C108.289 133.66 107.383 133.88 106.356 133.88H104.956L104.796 132.16H106.316C107.449 132.16 108.336 131.827 108.976 131.16C109.616 130.507 109.936 129.593 109.936 128.42V122.56H111.596V125.74ZM119.071 127.28C119.645 127.28 120.091 127.167 120.411 126.94C120.745 126.713 120.911 126.407 120.911 126.02C120.911 125.753 120.845 125.493 120.711 125.24C120.591 124.973 120.385 124.693 120.091 124.4L115.391 119.74V118.3L122.691 115.4L123.191 117L117.351 119.3L121.311 123.28C122.578 124.56 123.511 125.467 124.111 126C124.711 126.533 125.185 126.88 125.531 127.04C125.878 127.2 126.271 127.28 126.711 127.28C126.845 127.28 126.911 127.573 126.911 128.16C126.911 128.72 126.845 129 126.711 129C126.138 129 125.658 128.947 125.271 128.84C124.898 128.72 124.491 128.5 124.051 128.18C123.625 127.847 123.058 127.327 122.351 126.62C122.298 127.327 121.978 127.9 121.391 128.34C120.818 128.78 120.045 129 119.071 129H113.531C113.398 129 113.331 128.72 113.331 128.16C113.331 127.573 113.398 127.28 113.531 127.28H119.071ZM132.075 125.82C132.075 126.807 131.775 127.587 131.175 128.16C130.575 128.72 129.782 129 128.795 129H126.715C126.582 129 126.515 128.72 126.515 128.16C126.515 127.573 126.582 127.28 126.715 127.28H128.795C129.275 127.28 129.662 127.153 129.955 126.9C130.262 126.633 130.415 126.267 130.415 125.8V122.56H132.075V125.82ZM129.035 120.16V118.5H131.155V120.16H129.035ZM144.194 128.42C144.194 129.527 143.974 130.493 143.534 131.32C143.094 132.147 142.474 132.78 141.674 133.22C140.887 133.66 139.98 133.88 138.954 133.88H138.394L138.234 132.16H138.914C140.047 132.16 140.934 131.827 141.574 131.16C142.214 130.507 142.534 129.593 142.534 128.42V122.56H144.194V128.42ZM155.017 128.36C155.017 129.493 154.804 130.473 154.377 131.3C153.95 132.127 153.344 132.76 152.557 133.2C151.784 133.653 150.87 133.88 149.817 133.88H147.357L147.197 132.16H149.837C150.904 132.16 151.75 131.873 152.377 131.3C153.017 130.74 153.344 129.973 153.357 129H151.357C149.984 129 148.99 128.72 148.377 128.16C147.777 127.587 147.477 126.7 147.477 125.5C147.477 124.673 147.637 123.94 147.957 123.3C148.277 122.647 148.724 122.147 149.297 121.8C149.884 121.44 150.544 121.26 151.277 121.26C152.437 121.26 153.35 121.647 154.017 122.42C154.684 123.193 155.017 124.253 155.017 125.6V128.36ZM149.137 125.4C149.137 126.08 149.304 126.567 149.637 126.86C149.984 127.14 150.59 127.28 151.457 127.28H153.357V125.72C153.357 124.8 153.17 124.107 152.797 123.64C152.424 123.173 151.884 122.94 151.177 122.94C150.564 122.94 150.07 123.167 149.697 123.62C149.324 124.073 149.137 124.667 149.137 125.4ZM162.037 127.28C162.104 127.28 162.151 127.34 162.177 127.46C162.217 127.567 162.237 127.8 162.237 128.16C162.237 128.507 162.217 128.733 162.177 128.84C162.151 128.947 162.104 129 162.037 129H161.517C160.504 129 159.731 128.7 159.197 128.1C158.677 127.487 158.417 126.62 158.417 125.5V116.06H160.077V125.42C160.077 126.66 160.584 127.28 161.597 127.28H162.037ZM167.407 125.82C167.407 126.807 167.107 127.587 166.507 128.16C165.907 128.72 165.114 129 164.127 129H162.047C161.914 129 161.847 128.72 161.847 128.16C161.847 127.573 161.914 127.28 162.047 127.28H164.127C164.607 127.28 164.994 127.153 165.287 126.9C165.594 126.633 165.747 126.267 165.747 125.8V122.56H167.407V125.82ZM162.587 133.18V131.52H164.707V133.18H162.587Z" fill="white"/>
<path d="M141.698 169.286H73.6432C68.3159 169.286 64 164.97 64 159.643C64 154.316 68.3159 150 73.6432 150H141.698C147.026 150 151.341 154.316 151.341 159.643C151.341 164.97 147.026 169.286 141.698 169.286Z" fill="url(#paint9_linear_0_1)"/>
<path d="M81.216 163.422C81.726 163.422 82.125 163.272 82.413 162.972C82.701 162.678 82.845 162.267 82.845 161.739V159.102H83.592V160.533C83.592 160.755 83.655 160.926 83.781 161.046C83.913 161.166 84.102 161.226 84.348 161.226H84.465C84.525 161.226 84.555 161.358 84.555 161.622C84.555 161.874 84.525 162 84.465 162H84.348C84.186 162 84.036 161.973 83.898 161.919C83.76 161.859 83.658 161.784 83.592 161.694V161.802C83.586 162.282 83.484 162.702 83.286 163.062C83.088 163.428 82.812 163.707 82.458 163.899C82.104 164.097 81.696 164.196 81.234 164.196H80.982L80.91 163.422H81.216ZM87.5049 158.292C87.8649 158.292 88.1619 158.352 88.3959 158.472C88.6299 158.592 88.8249 158.79 88.9809 159.066C89.1369 159.336 89.2719 159.711 89.3859 160.191L88.6749 160.623C88.7709 160.851 88.8849 161.01 89.0169 161.1C89.1489 161.184 89.3349 161.226 89.5749 161.226H90.1689C90.2289 161.226 90.2589 161.358 90.2589 161.622C90.2589 161.784 90.2499 161.889 90.2319 161.937C90.2139 161.979 90.1929 162 90.1689 162H89.5479C89.1879 162 88.9029 161.928 88.6929 161.784C88.4829 161.634 88.2909 161.364 88.1169 160.974L87.4959 161.361C87.1119 161.601 86.7429 161.769 86.3889 161.865C86.0349 161.955 85.5939 162 85.0659 162H84.4629C84.4029 162 84.3729 161.874 84.3729 161.622C84.3729 161.358 84.4029 161.226 84.4629 161.226H85.0929C85.5429 161.226 85.9179 161.19 86.2179 161.118C86.5179 161.046 86.8269 160.92 87.1449 160.74L88.5129 159.939C88.4169 159.615 88.2849 159.39 88.1169 159.264C87.9549 159.138 87.7089 159.075 87.3789 159.075H85.2729L85.3719 158.292H87.5049ZM86.4069 157.239V156.492H87.3609V157.239H86.4069ZM92.579 160.569C92.579 161.013 92.444 161.364 92.174 161.622C91.904 161.874 91.547 162 91.103 162H90.167C90.107 162 90.077 161.874 90.077 161.622C90.077 161.358 90.107 161.226 90.167 161.226H91.103C91.319 161.226 91.493 161.169 91.625 161.055C91.763 160.935 91.832 160.77 91.832 160.56V159.102H92.579V160.569ZM90.41 163.881V163.134H91.364V163.881H90.41ZM98.5184 164.196C97.7624 164.196 97.1804 163.977 96.7724 163.539C96.3644 163.101 96.1604 162.489 96.1604 161.703V160.002H96.9074V161.685C96.9074 162.255 97.0454 162.687 97.3214 162.981C97.5974 163.275 98.0024 163.422 98.5364 163.422H98.9144C99.4304 163.422 99.8414 163.272 100.147 162.972C100.459 162.672 100.615 162.267 100.615 161.757V159.102H101.362V161.685C101.362 162.201 101.257 162.648 101.047 163.026C100.843 163.404 100.555 163.692 100.183 163.89C99.8174 164.094 99.3944 164.196 98.9144 164.196H98.5184ZM98.1044 158.832V158.085H99.0584V158.832H98.1044ZM103.642 156.177V161.226H104.839C105.055 161.226 105.229 161.166 105.361 161.046C105.499 160.926 105.568 160.764 105.568 160.56V156.177H106.315V160.569C106.315 161.013 106.18 161.364 105.91 161.622C105.64 161.874 105.283 162 104.839 162H102.895V156.177H103.642ZM107.931 156.177H108.678V162H107.931V156.177ZM117.561 160.587C117.561 160.785 117.621 160.941 117.741 161.055C117.867 161.169 118.041 161.226 118.263 161.226H118.434C118.494 161.226 118.524 161.358 118.524 161.622C118.524 161.874 118.494 162 118.434 162H118.29C118.134 162 117.99 161.976 117.858 161.928C117.726 161.88 117.627 161.817 117.561 161.739V161.847C117.555 162.303 117.447 162.708 117.237 163.062C117.027 163.422 116.739 163.701 116.373 163.899C116.007 164.097 115.587 164.196 115.113 164.196H114.717C113.961 164.196 113.379 163.977 112.971 163.539C112.563 163.101 112.359 162.489 112.359 161.703V160.002H113.106V161.685C113.106 162.255 113.244 162.687 113.52 162.981C113.796 163.275 114.201 163.422 114.735 163.422H115.113C115.629 163.422 116.04 163.272 116.346 162.972C116.658 162.672 116.814 162.267 116.814 161.757V159.102H117.561V160.587ZM114.303 158.832V158.085H115.257V158.832H114.303ZM120.134 161.226C120.368 161.226 120.554 161.166 120.692 161.046C120.83 160.926 120.899 160.764 120.899 160.56V159.102H121.646V160.542C121.646 160.764 121.706 160.935 121.826 161.055C121.952 161.169 122.132 161.226 122.366 161.226H122.618C122.678 161.226 122.708 161.355 122.708 161.613C122.708 161.871 122.678 162 122.618 162H122.339C121.787 162 121.427 161.823 121.259 161.469C121.049 161.823 120.674 162 120.134 162H118.433C118.373 162 118.343 161.874 118.343 161.622C118.343 161.358 118.373 161.226 118.433 161.226H120.134ZM120.701 163.134V163.845H118.325V163.134H120.701ZM122.823 161.226C123.249 161.226 123.462 161.034 123.462 160.65V160.281C123.462 159.705 123.615 159.252 123.921 158.922C124.227 158.592 124.647 158.427 125.181 158.427C125.715 158.427 126.126 158.583 126.414 158.895C126.702 159.207 126.846 159.657 126.846 160.245V160.497C126.846 160.755 126.897 160.941 126.999 161.055C127.101 161.169 127.257 161.226 127.467 161.226H127.692C127.752 161.226 127.782 161.358 127.782 161.622C127.782 161.874 127.752 162 127.692 162H127.467C126.945 162 126.606 161.808 126.45 161.424C126.33 161.61 126.153 161.754 125.919 161.856C125.691 161.952 125.436 162 125.154 162C124.53 162 124.11 161.814 123.894 161.442C123.792 161.634 123.657 161.775 123.489 161.865C123.321 161.955 123.099 162 122.823 162H122.616C122.556 162 122.526 161.874 122.526 161.622C122.526 161.358 122.556 161.226 122.616 161.226H122.823ZM126.099 160.245C126.099 159.537 125.784 159.183 125.154 159.183C124.836 159.183 124.599 159.273 124.443 159.453C124.287 159.633 124.209 159.909 124.209 160.281C124.209 160.575 124.29 160.806 124.452 160.974C124.62 161.142 124.854 161.226 125.154 161.226C125.784 161.226 126.099 160.899 126.099 160.245ZM129.109 161.226C128.923 161.094 128.77 160.917 128.65 160.695C128.536 160.467 128.479 160.236 128.479 160.002C128.479 159.678 128.554 159.387 128.704 159.129C128.86 158.865 129.07 158.661 129.334 158.517C129.598 158.367 129.895 158.292 130.225 158.292C130.531 158.292 130.81 158.364 131.062 158.508C131.314 158.652 131.512 158.85 131.656 159.102C131.806 159.348 131.881 159.624 131.881 159.93C131.881 160.194 131.815 160.44 131.683 160.668C131.557 160.89 131.374 161.076 131.134 161.226H132.466C132.724 161.226 132.922 161.175 133.06 161.073C133.198 160.971 133.267 160.833 133.267 160.659C133.267 160.545 133.237 160.431 133.177 160.317C133.123 160.197 133.021 160.059 132.871 159.903L131.044 157.986L131.584 157.437L133.447 159.426C133.825 159.828 134.014 160.242 134.014 160.668C134.014 161.07 133.876 161.394 133.6 161.64C133.324 161.88 132.946 162 132.466 162H131.449C131.059 162 130.774 161.991 130.594 161.973C130.42 161.955 130.279 161.916 130.171 161.856C130.063 161.91 129.91 161.949 129.712 161.973C129.52 161.991 129.235 162 128.857 162H127.696C127.636 162 127.606 161.874 127.606 161.622C127.606 161.358 127.636 161.226 127.696 161.226H129.109ZM130.135 161.208C130.465 161.07 130.717 160.896 130.891 160.686C131.071 160.476 131.161 160.248 131.161 160.002C131.161 159.72 131.068 159.492 130.882 159.318C130.702 159.138 130.468 159.048 130.18 159.048C129.892 159.048 129.655 159.138 129.469 159.318C129.289 159.492 129.199 159.72 129.199 160.002C129.199 160.26 129.277 160.491 129.433 160.695C129.595 160.899 129.829 161.07 130.135 161.208Z" fill="white"/>
<defs>
<linearGradient id="paint0_linear_0_1" x1="32.971" y1="123.606" x2="181.635" y2="100.591" gradientUnits="userSpaceOnUse">
<stop stop-color="#F97C44"/>
<stop offset="0.4974" stop-color="#F09C2A"/>
<stop offset="1" stop-color="#FFD82E"/>
</linearGradient>
<linearGradient id="paint1_linear_0_1" x1="77.9358" y1="134.226" x2="186.561" y2="134.226" gradientUnits="userSpaceOnUse">
<stop stop-color="#FFD82E"/>
<stop offset="0.5026" stop-color="#F09C2A"/>
<stop offset="1" stop-color="#F97C44"/>
</linearGradient>
<linearGradient id="paint2_linear_0_1" x1="28.0434" y1="85.9996" x2="126.834" y2="85.9996" gradientUnits="userSpaceOnUse">
<stop stop-color="#FFD82E"/>
<stop offset="0.5026" stop-color="#F09C2A"/>
<stop offset="1" stop-color="#F97C44"/>
</linearGradient>
<linearGradient id="paint3_linear_0_1" x1="-0.00118455" y1="138.464" x2="26.6118" y2="138.464" gradientUnits="userSpaceOnUse">
<stop stop-color="#F97C44"/>
<stop offset="0.4974" stop-color="#F09C2A"/>
<stop offset="1" stop-color="#FFD82E"/>
</linearGradient>
<linearGradient id="paint4_linear_0_1" x1="184.553" y1="74.2708" x2="211.166" y2="74.2708" gradientUnits="userSpaceOnUse">
<stop stop-color="#F97C44"/>
<stop offset="0.4974" stop-color="#F09C2A"/>
<stop offset="1" stop-color="#FFD82E"/>
</linearGradient>
<linearGradient id="paint5_linear_0_1" x1="191.163" y1="96.0505" x2="199.972" y2="96.0505" gradientUnits="userSpaceOnUse">
<stop/>
<stop offset="0.7923" stop-color="#302D3E"/>
<stop offset="0.8744" stop-color="#2F2C3D"/>
</linearGradient>
<linearGradient id="paint6_linear_0_1" x1="13.4851" y1="116.684" x2="22.295" y2="116.684" gradientUnits="userSpaceOnUse">
<stop/>
<stop offset="0.7923" stop-color="#302D3E"/>
<stop offset="0.8744" stop-color="#2F2C3D"/>
</linearGradient>
<linearGradient id="paint7_linear_0_1" x1="-nan" y1="-nan" x2="-nan" y2="-nan" gradientUnits="userSpaceOnUse">
<stop/>
<stop offset="0.7923" stop-color="#302D3E"/>
<stop offset="0.8744" stop-color="#2F2C3D"/>
</linearGradient>
<linearGradient id="paint8_linear_0_1" x1="-nan" y1="-nan" x2="-nan" y2="-nan" gradientUnits="userSpaceOnUse">
<stop/>
<stop offset="0.7923" stop-color="#302D3E"/>
<stop offset="0.8744" stop-color="#2F2C3D"/>
</linearGradient>
<linearGradient id="paint9_linear_0_1" x1="64.0005" y1="159.645" x2="151.338" y2="159.645" gradientUnits="userSpaceOnUse">
<stop/>
<stop offset="0.7923" stop-color="#302D3E"/>
<stop offset="0.8744" stop-color="#2F2C3D"/>
</linearGradient>
</defs>
</svg>
